<?xml version="1.0" encoding="UTF-8" standalone="no"?>
<svg
   xmlns:dc="http://purl.org/dc/elements/1.1/"
   xmlns:cc="http://creativecommons.org/ns#"
   xmlns:rdf="http://www.w3.org/1999/02/22-rdf-syntax-ns#"
   xmlns:svg="http://www.w3.org/2000/svg"
   xmlns="http://www.w3.org/2000/svg"
   xmlns:sodipodi="http://sodipodi.sourceforge.net/DTD/sodipodi-0.dtd"
   xmlns:inkscape="http://www.inkscape.org/namespaces/inkscape"
   viewBox="0 0 776.21332 759.40002"
   height="759.40002"
   width="776.21332"
   xml:space="preserve"
   id="svg2"
   version="1.1"
   inkscape:version="0.91 r13725"
   sodipodi:docname="steering_wheel_base.svg"><sodipodi:namedview
     pagecolor="#ffffff"
     bordercolor="#666666"
     borderopacity="1"
     objecttolerance="10"
     gridtolerance="10"
     guidetolerance="10"
     inkscape:pageopacity="0"
     inkscape:pageshadow="2"
     inkscape:window-width="1309"
     inkscape:window-height="839"
     id="namedview15200"
     showgrid="false"
     inkscape:zoom="0.87899497"
     inkscape:cx="332.49421"
     inkscape:cy="319.96351"
     inkscape:window-x="75"
     inkscape:window-y="34"
     inkscape:window-maximized="0"
     inkscape:current-layer="svg2" /><metadata
     id="metadata8"><rdf:RDF><cc:Work
         rdf:about=""><dc:format>image/svg+xml</dc:format><dc:type
           rdf:resource="http://purl.org/dc/dcmitype/StillImage" /><dc:title></dc:title></cc:Work></rdf:RDF></metadata><defs
     id="defs6"><clipPath
       id="clipPath20"
       clipPathUnits="userSpaceOnUse"><path
         id="path18"
         d="m 5447.2,116.738 c 0,-56.1364 -145.77,-101.6599 -325.6,-101.6599 -179.82,0 -325.59,45.5235 -325.59,101.6599 0,56.153 145.77,101.672 325.59,101.672 179.83,0 325.6,-45.519 325.6,-101.672 z" /></clipPath><radialGradient
       id="radialGradient28"
       spreadMethod="pad"
       gradientTransform="matrix(325.596,0,0,-101.665,5121.6,116.75)"
       gradientUnits="userSpaceOnUse"
       r="1"
       cy="0"
       cx="0"
       fy="0"
       fx="0"><stop
         id="stop22"
         offset="0"
         style="stop-opacity:1;stop-color:#918f90" /><stop
         id="stop24"
         offset="0.28950683"
         style="stop-opacity:1;stop-color:#231f20" /><stop
         id="stop26"
         offset="1"
         style="stop-opacity:1;stop-color:#231f20" /></radialGradient><clipPath
       id="clipPath38"
       clipPathUnits="userSpaceOnUse"><path
         id="path36"
         d="M 4251.07,119.992 C 4251.07,53.7305 4099.08,0 3911.6,0 3724.12,0 3572.14,53.7305 3572.14,119.992 3572.14,186.27 3724.12,240 3911.6,240 c 187.48,0 339.47,-53.73 339.47,-120.008 z" /></clipPath><radialGradient
       id="radialGradient46"
       spreadMethod="pad"
       gradientTransform="matrix(339.465,0,0,-120,3891.62,139.99)"
       gradientUnits="userSpaceOnUse"
       r="1"
       cy="0"
       cx="0"
       fy="0"
       fx="0"><stop
         id="stop40"
         offset="0"
         style="stop-opacity:1;stop-color:#918f90" /><stop
         id="stop42"
         offset="0.28950683"
         style="stop-opacity:1;stop-color:#231f20" /><stop
         id="stop44"
         offset="1"
         style="stop-opacity:1;stop-color:#231f20" /></radialGradient><clipPath
       id="clipPath56"
       clipPathUnits="userSpaceOnUse"><path
         id="path54"
         d="m 2134.94,148.781 c 0,-66.2615 -151.99,-119.9919 -339.47,-119.9919 -187.47,0 -339.46,53.7304 -339.46,119.9919 0,66.278 151.99,120.008 339.46,120.008 187.48,0 339.47,-53.73 339.47,-120.008 z" /></clipPath><radialGradient
       id="radialGradient64"
       spreadMethod="pad"
       gradientTransform="matrix(339.465,0,0,-120,1802.15,168.78)"
       gradientUnits="userSpaceOnUse"
       r="1"
       cy="0"
       cx="0"
       fy="0"
       fx="0"><stop
         id="stop58"
         offset="0"
         style="stop-opacity:1;stop-color:#918f90" /><stop
         id="stop60"
         offset="0.28950683"
         style="stop-opacity:1;stop-color:#231f20" /><stop
         id="stop62"
         offset="1"
         style="stop-opacity:1;stop-color:#231f20" /></radialGradient><clipPath
       id="clipPath74"
       clipPathUnits="userSpaceOnUse"><path
         id="path72"
         d="m 882.793,167.121 c 0,-56.141 -145.773,-101.6601 -325.598,-101.6601 -179.812,0 -325.593,45.5191 -325.593,101.6601 0,56.149 145.781,101.668 325.593,101.668 179.825,0 325.598,-45.519 325.598,-101.668 z" /></clipPath><radialGradient
       id="radialGradient82"
       spreadMethod="pad"
       gradientTransform="matrix(325.596,0,0,-101.665,557.192,167.12)"
       gradientUnits="userSpaceOnUse"
       r="1"
       cy="0"
       cx="0"
       fy="0"
       fx="0"><stop
         id="stop76"
         offset="0"
         style="stop-opacity:1;stop-color:#918f90" /><stop
         id="stop78"
         offset="0.28950683"
         style="stop-opacity:1;stop-color:#231f20" /><stop
         id="stop80"
         offset="1"
         style="stop-opacity:1;stop-color:#231f20" /></radialGradient><clipPath
       id="clipPath338"
       clipPathUnits="userSpaceOnUse"><path
         id="path336"
         d="m 4031.6,1893.8 c 0,0 -100,-160 -130,-365 -30,-205 -55,-584.999 -55,-584.999 0,0 -10,-110 -15,-125 h -1890 c -5,15 -15,125 -15,125 0,0 -25,379.999 -55,584.999 -30,205 -130,365 -130,365 z" /></clipPath><linearGradient
       id="linearGradient352"
       spreadMethod="pad"
       gradientTransform="matrix(-4.72e-5,-1080.42,-1080.42,4.72e-5,2886.6,1898.8)"
       gradientUnits="userSpaceOnUse"
       y2="0"
       x2="1"
       y1="0"
       x1="0"><stop
         id="stop340"
         offset="0"
         style="stop-opacity:1;stop-color:#231f20" /><stop
         id="stop342"
         offset="0.09871935"
         style="stop-opacity:1;stop-color:#393536" /><stop
         id="stop344"
         offset="0.252995"
         style="stop-opacity:1;stop-color:#393536" /><stop
         id="stop346"
         offset="0.34349344"
         style="stop-opacity:1;stop-color:#231f20" /><stop
         id="stop348"
         offset="0.703432"
         style="stop-opacity:1;stop-color:#231f20" /><stop
         id="stop350"
         offset="1"
         style="stop-opacity:1;stop-color:#231f20" /></linearGradient><clipPath
       id="clipPath362"
       clipPathUnits="userSpaceOnUse"><path
         id="path360"
         d="m 3831.59,1578.79 c -23.33,0 -58.33,35 -78.33,101.67 -36.66,98.33 70,113.33 70,113.33 0,0 18.34,-1.67 23.34,0 0,0 106.66,-15 70,-113.33 -20,-66.67 -55,-101.67 -78.33,-101.67 z" /></clipPath><radialGradient
       id="radialGradient374"
       spreadMethod="pad"
       gradientTransform="matrix(136.693,0,0,-193.636,3787.43,1616.29)"
       gradientUnits="userSpaceOnUse"
       r="1"
       cy="0"
       cx="0"
       fy="0"
       fx="0"><stop
         id="stop364"
         offset="0"
         style="stop-opacity:1;stop-color:#393536" /><stop
         id="stop366"
         offset="0.140241"
         style="stop-opacity:1;stop-color:#393536" /><stop
         id="stop368"
         offset="0.42638415"
         style="stop-opacity:1;stop-color:#231f20" /><stop
         id="stop370"
         offset="0.597472"
         style="stop-opacity:1;stop-color:#231f20" /><stop
         id="stop372"
         offset="1"
         style="stop-opacity:1;stop-color:#231f20" /></radialGradient><clipPath
       id="clipPath384"
       clipPathUnits="userSpaceOnUse"><path
         id="path382"
         d="m 1958.27,1578.79 c 23.33,0 58.33,35 78.33,101.67 36.66,98.33 -70,113.33 -70,113.33 0,0 -18.34,-1.67 -23.34,0 0,0 -106.66,-15 -70,-113.33 20,-66.67 55,-101.67 78.33,-101.67 z" /></clipPath><radialGradient
       id="radialGradient396"
       spreadMethod="pad"
       gradientTransform="matrix(-136.693,0,0,-193.636,2002.43,1616.29)"
       gradientUnits="userSpaceOnUse"
       r="1"
       cy="0"
       cx="0"
       fy="0"
       fx="0"><stop
         id="stop386"
         offset="0"
         style="stop-opacity:1;stop-color:#393536" /><stop
         id="stop388"
         offset="0.140241"
         style="stop-opacity:1;stop-color:#393536" /><stop
         id="stop390"
         offset="0.42638415"
         style="stop-opacity:1;stop-color:#231f20" /><stop
         id="stop392"
         offset="0.597472"
         style="stop-opacity:1;stop-color:#231f20" /><stop
         id="stop394"
         offset="1"
         style="stop-opacity:1;stop-color:#231f20" /></radialGradient></defs><g
     id="g14"
     transform="matrix(0.13333333,0,0,-0.13333333,0,759.4)"><g
       clip-path="url(#clipPath20)"
       id="g16"><path
         id="path30"
         style="fill:url(#radialGradient28);fill-opacity:1;fill-rule:nonzero;stroke:none"
         d="m 5447.2,116.738 c 0,-56.1364 -145.77,-101.6599 -325.6,-101.6599 -179.82,0 -325.59,45.5235 -325.59,101.6599 0,56.153 145.77,101.672 325.59,101.672 179.83,0 325.6,-45.519 325.6,-101.672"
         inkscape:connector-curvature="0" /></g></g><g
     id="g32"
     transform="matrix(0.13333333,0,0,-0.13333333,0,759.4)"><g
       clip-path="url(#clipPath38)"
       id="g34"><path
         id="path48"
         style="fill:url(#radialGradient46);fill-opacity:1;fill-rule:nonzero;stroke:none"
         d="M 4251.07,119.992 C 4251.07,53.7305 4099.08,0 3911.6,0 3724.12,0 3572.14,53.7305 3572.14,119.992 3572.14,186.27 3724.12,240 3911.6,240 c 187.48,0 339.47,-53.73 339.47,-120.008"
         inkscape:connector-curvature="0" /></g></g><g
     id="g50"
     transform="matrix(0.13333333,0,0,-0.13333333,0,759.4)"><g
       clip-path="url(#clipPath56)"
       id="g52"><path
         id="path66"
         style="fill:url(#radialGradient64);fill-opacity:1;fill-rule:nonzero;stroke:none"
         d="m 2134.94,148.781 c 0,-66.2615 -151.99,-119.9919 -339.47,-119.9919 -187.47,0 -339.46,53.7304 -339.46,119.9919 0,66.278 151.99,120.008 339.46,120.008 187.48,0 339.47,-53.73 339.47,-120.008"
         inkscape:connector-curvature="0" /></g></g><g
     id="g68"
     transform="matrix(0.13333333,0,0,-0.13333333,0,759.4)"><g
       clip-path="url(#clipPath74)"
       id="g70"><path
         id="path84"
         style="fill:url(#radialGradient82);fill-opacity:1;fill-rule:nonzero;stroke:none"
         d="m 882.793,167.121 c 0,-56.141 -145.773,-101.6601 -325.598,-101.6601 -179.812,0 -325.593,45.5191 -325.593,101.6601 0,56.149 145.781,101.668 325.593,101.668 179.825,0 325.598,-45.519 325.598,-101.668"
         inkscape:connector-curvature="0" /></g></g><path
     id="path86"
     style="fill:#231f20;fill-opacity:1;fill-rule:nonzero;stroke:none"
     d="m 706.21332,580.89334 c 29.33333,41.33333 39.99999,85.3332 39.99999,101.99986 0,51.33333 -65.55466,58.0016 -65.55466,58.0016 l -589.333186,0 c -39.028532,0 -70.666665,-31.63853 -70.666665,-70.66666 0,0 0.221467,-44.66814 40.221466,-98.66814 25.333333,-30.66666 90.889065,-84.88799 126.445065,-91.11066 l 435.55465,0 c 10.66667,0 54,59.11067 83.33334,100.444 z m -136.22267,18.91333 -364.07199,0 c -32.96133,0 -63.03866,5.75333 -80.37173,25.75333 -17.33333,19.99987 2,24.20934 2,24.20934 l 74.44373,0 445.72666,0 c 0,0 29.82933,5.12386 6.22266,-27.98934 -18.24266,-25.588 -64.76399,-21.97333 -83.94933,-21.97333"
     inkscape:connector-curvature="0" /><path
     id="path88"
     style="fill:#262223;fill-opacity:1;fill-rule:nonzero;stroke:none"
     d="m 743.58265,679.1412 c 0,48.19373 -60.35867,54.60933 -62.924,54.60933 l -589.333186,0 c -37.257199,0 -67.466665,-28.6104 -67.466665,-65.86933 0,0 -0.756666,-40.988 38.725066,-94.02386 26.074533,-31.63067 91.161465,-84.35733 125.506795,-89.888 l 434.64132,0 c 9.48134,0 55.20934,59.88667 82.76534,99.19466 27.556,39.31067 38.24266,78.7428 38.08533,95.9772 z M 205.91866,591.124 c -34.74,0 -66.29733,12.436 -84.22333,33.62134 -19.11147,23.85053 3.8932,27.26506 3.8932,27.26506 l 74.95013,0 448.77199,0 c 0,0 31.38,5.72134 7.81067,-29.2144 -0.96534,-1.43066 -2.02267,-2.79466 -3.13867,-4.116 -21.27733,-25.19466 -60.516,-27.556 -79.09466,-27.556 l -368.96933,0"
     inkscape:connector-curvature="0" /><path
     id="path90"
     style="fill:#282425;fill-opacity:1;fill-rule:nonzero;stroke:none"
     d="m 740.94931,675.3864 c 0,45.05627 -55.15999,51.21773 -60.29066,51.21773 l -589.333186,0 c -35.485332,0 -64.267065,-25.58173 -64.267065,-61.06813 0,0 -1.733333,-37.30946 37.229066,-89.384 C 91.102131,543.56001 155.72,492.32801 188.856,487.48801 l 433.72798,0 c 8.296,0 56.42,60.664 82.19734,97.94799 25.77733,37.284 36.48399,72.1504 36.16799,89.9504 z M 205.91866,582.44134 c -36.51733,0 -69.55733,19.11866 -88.07546,41.488 -20.889069,27.7056 5.78653,30.3212 5.78653,30.3212 l 75.45693,0 451.81999,0 c 0,0 32.928,6.32133 9.39733,-30.43987 -0.96533,-1.508 -2.03333,-2.96533 -3.15333,-4.41067 -22.52933,-29.06133 -58.37866,-36.95866 -77.36533,-36.95866 l -373.86666,0"
     inkscape:connector-curvature="0" /><path
     id="path92"
     style="fill:#2a2627;fill-opacity:1;fill-rule:nonzero;stroke:none"
     d="m 738.31731,671.63494 c 0,41.91719 -49.96266,47.82493 -57.65866,47.82493 l -589.333186,0 c -33.713999,0 -61.067065,-22.55467 -61.067065,-56.2692 0,0 -2.711466,-33.6308 35.733333,-84.74133 27.555199,-33.556 91.702928,-83.292 123.629598,-87.44 l 432.81332,0 c 7.112,0 57.63067,61.43867 81.63067,96.69733 24,35.26133 34.72799,65.55733 34.25199,83.92827 z m -532.39865,-97.8776 c -38.29466,0 -72.81653,25.80266 -91.92693,49.35866 -22.666666,31.5548 7.6796,33.37467 7.6796,33.37467 l 75.96333,0 454.86532,0 c 0,0 34.47734,6.91973 10.984,-31.66267 -0.964,-1.58666 -2.03866,-3.14133 -3.16666,-4.70666 -23.75734,-32.95867 -56.23734,-46.364 -75.63467,-46.364 l -378.76399,0"
     inkscape:connector-curvature="0" /><path
     id="path94"
     style="fill:#2d292a;fill-opacity:1;fill-rule:nonzero;stroke:none"
     d="m 735.68665,667.8812 c 0,38.77867 -44.768,44.4324 -55.028,44.4324 l -589.333186,0 c -31.942665,0 -57.867065,-19.5256 -57.867065,-51.46826 0,0 -3.6896,-29.95214 34.236933,-80.1 28.296399,-34.51867 91.975328,-82.76 122.691328,-86.216 l 431.89999,0 c 5.92667,0 58.84,62.21467 81.06267,95.44933 22.22266,33.23467 32.96933,58.96507 32.33733,77.90253 z M 205.91866,565.076 c -40.07333,0 -76.07546,32.484 -95.77906,57.22534 -24.444269,35.40653 9.57293,36.42933 9.57293,36.42933 l 76.47013,0 457.91066,0 c 0,0 36.02933,7.5188 12.572,-32.88667 -0.96534,-1.66533 -2.04267,-3.31733 -3.18,-5.00133 -24.924,-36.90133 -54.1,-55.76667 -73.90533,-55.76667 l -383.66133,0"
     inkscape:connector-curvature="0" /><path
     id="path96"
     style="fill:#2f2b2c;fill-opacity:1;fill-rule:nonzero;stroke:none"
     d="m 733.05332,664.12814 c 0,35.64013 -39.56934,41.04119 -52.39467,41.04119 l -589.333186,0 c -30.171866,0 -54.666665,-16.49853 -54.666665,-46.67093 0,0 -4.667066,-26.27186 32.739599,-75.45706 29.037066,-35.48133 92.246932,-82.228 121.753602,-84.99333 l 430.98665,0 c 4.74,0 60.05067,62.99199 80.49467,94.20266 20.444,31.21067 31.21199,52.37333 30.42,71.87747 z M 205.91866,556.39334 c -41.85066,0 -79.3348,39.16666 -99.6312,65.092 -26.222395,39.26 11.46614,39.48653 11.46614,39.48653 l 76.97706,0 460.95866,0 c 0,0 37.576,8.11613 14.15866,-34.112 -0.96533,-1.74253 -2.04666,-3.49587 -3.19466,-5.2972 -26.04134,-40.87467 -51.96134,-65.16933 -72.17733,-65.16933 l -388.55733,0"
     inkscape:connector-curvature="0" /><path
     id="path98"
     style="fill:#322e2f;fill-opacity:1;fill-rule:nonzero;stroke:none"
     d="m 730.42132,660.37454 c 0,32.50146 -34.372,37.64946 -49.76267,37.64946 l -589.333186,0 c -28.400399,0 -51.466665,-13.47093 -51.466665,-41.87093 0,0 -5.6452,-22.5932 31.243333,-70.81573 29.778128,-36.444 92.519198,-81.69467 120.815198,-83.76933 l 430.07332,0 c 3.55467,0 61.26,63.76799 79.92667,92.95466 18.66666,29.184 29.45333,45.78147 28.504,65.85187 z M 205.91866,547.71067 c -43.628,0 -82.5936,45.84933 -103.4832,72.96 -27.999995,43.11213 13.35934,42.53973 13.35934,42.53973 l 77.48386,0 464.00399,0 c 0,0 39.128,8.71614 15.74533,-35.33586 -0.964,-1.81987 -2.048,-3.67454 -3.20666,-5.59054 -27.12667,-44.86266 -49.824,-74.57333 -70.448,-74.57333 l -393.45466,0"
     inkscape:connector-curvature="0" /><path
     id="path100"
     style="fill:#343131;fill-opacity:1;fill-rule:nonzero;stroke:none"
     d="m 727.79065,656.6224 c 0,29.36307 -29.176,34.25627 -47.132,34.25627 l -589.333186,0 c -26.628532,0 -48.267065,-10.44267 -48.267065,-37.0708 0,0 -6.622933,-18.91467 29.747866,-66.1732 30.518795,-37.408 92.789735,-81.16266 119.876395,-82.54666 l 429.15999,0 c 2.36933,0 62.468,64.54399 79.35733,91.70533 16.88934,27.16133 27.69867,39.18786 26.59067,59.82906 z M 205.91866,539.02801 c -45.40666,0 -85.8536,52.53199 -107.334796,80.82933 -29.777599,46.96146 15.252536,45.5948 15.252536,45.5948 l 77.99026,0 467.04932,0 c 0,0 40.67734,9.31293 17.33334,-36.56 -0.964,-1.89894 -2.04667,-3.85347 -3.22134,-5.8868 -28.20266,-48.852 -47.68266,-83.97733 -68.71733,-83.97733 l -398.35199,0"
     inkscape:connector-curvature="0" /><path
     id="path102"
     style="fill:#373334;fill-opacity:1;fill-rule:nonzero;stroke:none"
     d="m 725.15732,652.86827 c 0,26.22493 -23.97734,30.86507 -44.49867,30.86507 l -589.333186,0 c -24.857199,0 -45.067065,-7.41454 -45.067065,-32.2708 0,0 -7.6,-15.236 28.251466,-61.5332 C 105.7688,551.56001 167.572,509.30001 193.448,508.60801 l 428.24665,0 c 1.184,0 63.67867,65.31999 78.78933,90.45733 15.11067,25.13466 25.94,32.59613 24.67334,53.80293 z M 205.91866,530.34534 c -47.184,0 -89.1124,59.21466 -111.186929,88.696 -31.555199,50.816 17.145869,48.6508 17.145869,48.6508 l 78.49706,0 470.09732,0 c 0,0 42.22534,9.91306 18.92,-37.78427 -0.96533,-1.9772 -2.04666,-4.0332 -3.236,-6.18253 -29.22,-52.868 -45.54533,-93.38 -66.988,-93.38 l -403.24932,0"
     inkscape:connector-curvature="0" /><path
     id="path104"
     style="fill:#393536;fill-opacity:1;fill-rule:nonzero;stroke:none"
     d="m 722.52665,649.11614 c 0,23.08546 -18.78133,27.47186 -41.868,27.47186 l -589.333186,0 c -23.085866,0 -41.867065,-4.3864 -41.867065,-27.47186 0,0 -8.578133,-11.55627 26.755199,-56.88947 32.000002,-39.33333 93.333062,-80.09866 117.999732,-80.09866 l 427.33199,0 c 0,0 64.88933,66.09599 78.22266,89.20799 13.33334,23.112 24.18267,26.0052 22.75867,47.78014 z m -108.46133,-127.45347 -408.14666,0 c -48.96133,0 -92.37173,65.89733 -115.038396,96.564 -33.333332,54.66653 19.039066,51.70507 19.039066,51.70507 l 552.14599,0 c 0,0 47.48133,11.4032 17.25866,-45.48507 -30.22266,-56.888 -43.40666,-102.784 -65.25866,-102.784"
     inkscape:connector-curvature="0" /><g
     id="g332"
     transform="matrix(0.13333333,0,0,-0.13333333,0,759.4)"><g
       clip-path="url(#clipPath338)"
       id="g334"><path
         id="path354"
         style="fill:url(#linearGradient352);fill-opacity:1;fill-rule:nonzero;stroke:none"
         d="m 4031.6,1893.8 c 0,0 -100,-160 -130,-365 -30,-205 -55,-584.999 -55,-584.999 0,0 -10,-110 -15,-125 l -1890,0 c -5,15 -15,125 -15,125 0,0 -25,379.999 -55,584.999 -30,205 -130,365 -130,365 l 2290,0"
         inkscape:connector-curvature="0" /></g></g><g
     id="g356"
     transform="matrix(0.13333333,0,0,-0.13333333,0,759.4)"><g
       clip-path="url(#clipPath362)"
       id="g358"><path
         id="path376"
         style="fill:url(#radialGradient374);fill-opacity:1;fill-rule:nonzero;stroke:none"
         d="m 3831.59,1578.79 c -23.33,0 -58.33,35 -78.33,101.67 -36.66,98.33 70,113.33 70,113.33 0,0 18.34,-1.67 23.34,0 0,0 106.66,-15 70,-113.33 -20,-66.67 -55,-101.67 -78.33,-101.67 l -6.68,0"
         inkscape:connector-curvature="0" /></g></g><g
     id="g378"
     transform="matrix(0.13333333,0,0,-0.13333333,0,759.4)"><g
       clip-path="url(#clipPath384)"
       id="g380"><path
         id="path398"
         style="fill:url(#radialGradient396);fill-opacity:1;fill-rule:nonzero;stroke:none"
         d="m 1958.27,1578.79 c 23.33,0 58.33,35 78.33,101.67 36.66,98.33 -70,113.33 -70,113.33 0,0 -18.34,-1.67 -23.34,0 0,0 -106.66,-15 -70,-113.33 20,-66.67 55,-101.67 78.33,-101.67 l 6.68,0"
         inkscape:connector-curvature="0" /></g></g><path
     id="path400"
     style="fill:#231f20;fill-opacity:1;fill-rule:nonzero;stroke:none"
     d="m 639.22665,716.8932 c -4.59333,-0.0557 -460.04532,-5.66667 -521.01305,-5.66667 -80.800534,0 -94.661467,-22.92133 -94.790134,-23.14786 l -0.08133,-0.148 -0.551467,-0.49893 c 0.340533,1.25626 0.8604,3.14946 1.2692,4.54533 6.466133,6.4656 28.437466,21.24946 94.153734,21.24946 60.95573,0 516.39438,5.60947 520.90372,5.66147 0.99333,0.0975 8.57333,0.7948 19.45733,0.7948 24.644,0 66.212,-3.5844 86.55066,-25.81453 0.248,-1.25893 0.45734,-2.68547 0.6,-3.77867 -27.05599,34.07707 -105.61333,26.8864 -106.49866,26.8036"
     inkscape:connector-curvature="0" /><path
     id="path402"
     style="fill:#231f20;fill-opacity:1;fill-rule:nonzero;stroke:none"
     d="m 523.14799,489.56001 -276.53333,0 -14.40133,17.33333 305.33332,0 -14.39866,-17.33333"
     inkscape:connector-curvature="0" /><path
     id="path30310"
     style="fill:#393536;fill-opacity:1;fill-rule:nonzero;stroke:none"
     d="m 54.342132,675.00267 c 0,0 7.2048,-9.26253 17.499066,-7.71987 5.146267,0.77187 12.737467,2.44534 18.463466,5.0188 5.7256,2.57187 9.585467,6.04627 7.269867,10.41974 -2.316133,4.37453 -8.2344,6.56413 -14.6048,7.40106 -6.368133,0.83747 -13.187999,0.32187 -17.304666,-0.70786 -4.1172,-1.03067 -8.2344,-2.83067 -10.678133,-5.276 -2.4448,-2.44534 -3.216667,-5.53334 -0.6448,-9.13587"
     inkscape:connector-curvature="0" /><path
     id="path30312"
     style="fill:#4d4a4b;fill-opacity:1;fill-rule:nonzero;stroke:none"
     d="m 71.972932,668.276 c 4.872933,0.7308 11.878666,2.28387 17.168266,4.6412 5.289066,2.35467 8.863466,5.51347 6.8724,9.45734 -2.166667,3.99893 -7.733334,6.04426 -13.836533,6.78693 -5.7672,0.74533 -11.935333,0.27973 -15.691067,-0.64533 -3.738133,-0.92547 -7.433866,-2.57494 -9.700533,-4.72707 -2.3292,-2.2104 -3.227066,-4.9208 -1.217733,-8.05413 0.06507,-0.0975 0.1328,-0.19894 0.205733,-0.3 0.0156,-0.0188 1.699467,-2.17347 4.568667,-4.13907 2.462533,-1.68653 5.798,-3.2344 9.698533,-3.17867 0.630667,0.009 1.274933,0.0599 1.932267,0.1588"
     inkscape:connector-curvature="0" /><path
     id="path30314"
     style="fill:#615e5f;fill-opacity:1;fill-rule:nonzero;stroke:none"
     d="m 72.104665,669.26934 c 4.598933,0.69053 11.019333,2.12386 15.873466,4.2624 4.853067,2.13906 8.140667,4.9828 6.474533,8.49746 -2.0172,3.62027 -7.232933,5.52027 -13.068266,6.1708 -5.165067,0.65307 -10.682266,0.23854 -14.0776,-0.58386 -3.358933,-0.8188 -6.641733,-2.31094 -8.723466,-4.176 -2.290667,-2.05054 -3.282267,-4.49067 -1.5708,-7.29067 0.0588,-0.0907 0.122933,-0.18547 0.191067,-0.2828 0.0328,-0.0375 1.581866,-2.0068 4.205733,-3.8068 2.267733,-1.55573 5.337066,-2.98533 8.918266,-2.93587 0.580267,0.009 1.172934,0.0547 1.777067,0.14534"
     inkscape:connector-curvature="0" /><path
     id="path30316"
     style="fill:#747171;fill-opacity:1;fill-rule:nonzero;stroke:none"
     d="m 72.236398,670.26254 c 4.3256,0.64946 10.16,1.96293 14.578133,3.8844 4.4172,1.92133 7.418267,4.45146 6.0772,7.53586 -1.867733,3.24374 -6.7308,5 -12.3,5.5584 -4.5636,0.5572 -9.430266,0.1948 -12.464666,-0.524 -2.978667,-0.71306 -5.8568,-2.04266 -7.7464,-3.62506 -2.256133,-1.88947 -3.338533,-4.0604 -1.9244,-6.52814 0.05467,-0.0837 0.113467,-0.17186 0.178667,-0.2656 0.04787,-0.0557 1.462,-1.84106 3.841066,-3.47546 2.072934,-1.42454 4.8756,-2.73494 8.138,-2.6912 0.5308,0.007 1.072,0.0495 1.6224,0.1308"
     inkscape:connector-curvature="0" /><path
     id="path30318"
     style="fill:#868383;fill-opacity:1;fill-rule:nonzero;stroke:none"
     d="m 72.368798,671.25627 c 4.050933,0.6088 9.3,1.80107 13.282267,3.5052 3.981199,1.7052 6.696266,3.92133 5.680133,6.57453 -1.718667,2.86667 -6.230133,4.47854 -11.532267,4.94427 -3.962,0.46507 -8.177066,0.15307 -10.851066,-0.46307 -2.599467,-0.60786 -5.082267,-1.76506 -6.768667,-3.07346 -2.229199,-1.7276 -3.394799,-3.63174 -2.278133,-5.76614 0.04893,-0.0749 0.1036,-0.1588 0.164,-0.24693 0.0652,-0.0744 1.344267,-1.676 3.477067,-3.14267 1.8792,-1.2948 4.415733,-2.48533 7.358933,-2.44946 0.480133,0.004 0.9708,0.0443 1.467733,0.11773"
     inkscape:connector-curvature="0" /><path
     id="path30320"
     style="fill:#979595;fill-opacity:1;fill-rule:nonzero;stroke:none"
     d="m 72.499998,672.25054 c 3.778133,0.5656 8.441733,1.64013 11.986933,3.12653 3.5464,1.488 5.974533,3.388 5.283333,5.61253 -1.569733,2.49067 -5.729066,3.95734 -10.764533,4.3292 -3.359866,0.37334 -6.925466,0.11867 -9.237466,-0.39906 -2.221333,-0.4984 -4.316133,-1.48374 -5.7912,-2.52494 -2.210933,-1.56306 -3.451067,-3.2016 -2.6312,-5.0016 0.04373,-0.0703 0.0932,-0.14626 0.150533,-0.23066 0.08013,-0.0932 1.224934,-1.5104 3.112934,-2.812 1.683333,-1.16094 3.954666,-2.2344 6.578133,-2.20627 0.430267,0.005 0.869333,0.0396 1.312533,0.10627"
     inkscape:connector-curvature="0" /><path
     id="path30322"
     style="fill:#a8a6a5;fill-opacity:1;fill-rule:nonzero;stroke:none"
     d="m 72.632265,673.24374 c 3.503733,0.5256 7.581333,1.4792 10.6912,2.7484 3.1104,1.2704 5.252533,2.85733 4.885866,4.65053 -1.420267,2.1136 -5.228133,3.4376 -9.996266,3.71613 -2.757867,0.27974 -5.6724,0.0761 -7.624,-0.33906 -1.842133,-0.3916 -3.562533,-1.1848 -4.8136,-1.9744 -2.203067,-1.38907 -3.5072,-2.77187 -2.9848,-4.23747 0.03747,-0.0625 0.08333,-0.1344 0.135867,-0.21307 0.09747,-0.112 1.107333,-1.34426 2.748933,-2.48026 1.4896,-1.03067 3.494267,-1.98387 5.799067,-1.964 0.380133,0.004 0.7676,0.0349 1.157733,0.0932"
     inkscape:connector-curvature="0" /><path
     id="path30324"
     style="fill:#b7b6b5;fill-opacity:1;fill-rule:nonzero;stroke:none"
     d="m 72.763598,674.23747 c 3.230667,0.48387 6.7228,1.3172 9.396267,2.3704 2.674,1.052 4.530799,2.32547 4.489066,3.68947 -1.271333,1.736 -4.727066,2.91466 -9.228666,3.10106 -2.156667,0.18547 -4.420267,0.0333 -6.010933,-0.27706 -1.462,-0.2864 -2.818667,-0.87187 -3.8364,-1.42294 -2.2104,-1.19573 -3.563067,-2.34213 -3.338534,-3.47706 0.03333,-0.0547 0.07347,-0.11974 0.122934,-0.1948 0.113466,-0.13067 0.988533,-1.17867 2.3848,-2.14947 1.2948,-0.89947 3.033333,-1.7328 5.0188,-1.71827 0.3308,0.001 0.666666,0.0292 1.002666,0.0787"
     inkscape:connector-curvature="0" /><path
     id="path30326"
     style="fill:#c6c5c4;fill-opacity:1;fill-rule:nonzero;stroke:none"
     d="m 72.895865,675.23067 c 2.956266,0.44387 5.862533,1.15733 8.101066,1.99227 2.238,0.83586 3.807734,1.79426 4.091067,2.7276 -1.121867,1.3588 -4.226,2.3932 -8.4604,2.48693 -1.554667,0.0932 -3.166667,-0.009 -4.396933,-0.21613 -1.0828,-0.1828 -2.084267,-0.54107 -2.859867,-0.87187 -2.240133,-0.95467 -3.618666,-1.91347 -3.6916,-2.712 0.02707,-0.0495 0.06347,-0.10827 0.108267,-0.17867 0.1308,-0.14946 0.870933,-1.01346 2.021867,-1.81613 1.1,-0.7708 2.571866,-1.48533 4.238533,-1.4776 0.280267,0.002 0.564667,0.0245 0.848,0.0656"
     inkscape:connector-curvature="0" /><path
     id="path30328"
     style="fill:#d4d4d2;fill-opacity:1;fill-rule:nonzero;stroke:none"
     d="m 75.834931,681.476 c -1.722933,0 -3.467733,-0.17866 -4.665599,-0.476 -2.2996,-0.57706 -3.676134,-1.4828 -4.045334,-1.94946 0.02187,-0.0401 0.05307,-0.0948 0.0948,-0.15987 0.145734,-0.16773 0.750934,-0.848 1.656667,-1.48547 0.905733,-0.63853 2.112,-1.23333 3.459467,-1.23333 0.230133,0 0.462933,0.0188 0.692133,0.0521 2.683333,0.40254 5.004133,0.99574 6.806266,1.61454 1.802134,0.6188 3.086,1.26146 3.693734,1.7656 -0.9724,0.98386 -3.724934,1.87186 -7.692134,1.87186"
     inkscape:connector-curvature="0" /><path
     id="path30330"
     style="fill:#393536;fill-opacity:1;fill-rule:nonzero;stroke:none"
     d="m 668.54665,684.55987 c 0,0 -7.66667,-10 3,-11.33333 10.66667,-1.33334 30.33333,-9 36.66667,0.33333 6.33333,9.33333 9,12 -0.66667,14.33333 -9.66667,2.33334 -33.66667,12.66667 -39,-3.33333"
     inkscape:connector-curvature="0" /><path
     id="path30332"
     style="fill:#4d4a4b;fill-opacity:1;fill-rule:nonzero;stroke:none"
     d="m 670.10665,684.3104 c 0,0 -7.10667,-9.26773 2.78133,-10.5036 9.88667,-1.236 28.116,-8.34173 33.98667,0.30934 5.87067,8.65053 8.34267,11.1224 -0.61867,13.28493 -8.95866,2.16293 -31.20533,11.7416 -36.14933,-3.09067"
     inkscape:connector-curvature="0" /><path
     id="path30334"
     style="fill:#615e5f;fill-opacity:1;fill-rule:nonzero;stroke:none"
     d="m 671.66665,684.064 c 0,0 -6.54667,-8.53853 2.56133,-9.6776 9.108,-1.13853 25.9,-7.6848 31.308,0.28547 5.408,7.96933 7.684,10.24693 -0.56933,12.23853 -8.25467,1.99227 -28.74667,10.81507 -33.3,-2.8464"
     inkscape:connector-curvature="0" /><path
     id="path30336"
     style="fill:#747171;fill-opacity:1;fill-rule:nonzero;stroke:none"
     d="m 673.22665,683.81454 c 0,0 -5.98667,-7.80667 2.34267,-8.84787 8.328,-1.0412 23.68266,-7.02653 28.62666,0.25987 4.94534,7.288 7.028,9.36933 -0.51866,11.19226 -7.548,1.82134 -26.28667,9.88907 -30.45067,-2.60426"
     inkscape:connector-curvature="0" /><path
     id="path30338"
     style="fill:#868383;fill-opacity:1;fill-rule:nonzero;stroke:none"
     d="m 674.78665,683.56774 c 0,0 -5.42667,-7.07707 2.12267,-8.0208 7.54933,-0.94427 21.46666,-6.36987 25.94933,0.23586 4.48133,6.6052 6.36933,8.49174 -0.472,10.14267 -6.84133,1.6532 -23.82667,8.9652 -27.6,-2.35773"
     inkscape:connector-curvature="0" /><path
     id="path30340"
     style="fill:#979595;fill-opacity:1;fill-rule:nonzero;stroke:none"
     d="m 676.34532,683.3188 c 0,0 -4.86534,-6.34533 1.90533,-7.19226 6.768,-0.84627 19.24933,-5.7104 23.26933,0.212 4.01867,5.92293 5.71067,7.61613 -0.424,9.0964 -6.13466,1.4812 -21.36533,8.03853 -24.75066,-2.11614"
     inkscape:connector-curvature="0" /><path
     id="path30342"
     style="fill:#a8a6a5;fill-opacity:1;fill-rule:nonzero;stroke:none"
     d="m 677.90532,683.07187 c 0,0 -4.30534,-5.61613 1.684,-6.36507 5.99066,-0.74946 17.03466,-5.05466 20.592,0.188 3.556,5.2412 5.05333,6.73854 -0.376,8.04787 -5.428,1.312 -18.90534,7.1136 -21.9,-1.8708"
     inkscape:connector-curvature="0" /><path
     id="path30344"
     style="fill:#b7b6b5;fill-opacity:1;fill-rule:nonzero;stroke:none"
     d="m 679.46532,682.82294 c 0,0 -3.74534,-4.8844 1.46533,-5.53654 5.20933,-0.6504 14.81867,-4.39573 17.91067,0.16307 3.09333,4.55987 4.39733,5.86093 -0.324,7.00107 -4.72267,1.14013 -16.44667,6.188 -19.052,-1.6276"
     inkscape:connector-curvature="0" /><path
     id="path30346"
     style="fill:#c6c5c4;fill-opacity:1;fill-rule:nonzero;stroke:none"
     d="m 681.02532,682.576 c 0,0 -3.18534,-4.15466 1.24533,-4.70933 4.43067,-0.55467 12.60133,-3.73853 15.232,0.13853 2.632,3.8776 3.73867,4.98547 -0.276,5.95467 -4.01733,0.96933 -13.98667,5.26147 -16.20133,-1.38387"
     inkscape:connector-curvature="0" /><path
     id="path30348"
     style="fill:#d4d4d2;fill-opacity:1;fill-rule:nonzero;stroke:none"
     d="m 682.58398,682.32654 c 0,0 -2.624,-3.4224 1.028,-3.8796 3.65067,-0.45734 10.384,-3.08187 12.552,0.11453 2.168,3.1948 3.08134,4.10787 -0.228,4.9068 -3.30933,0.7984 -11.52533,4.33587 -13.352,-1.14173"
     inkscape:connector-curvature="0" /></svg>